<svg xmlns="http://www.w3.org/2000/svg" version="1.1" xmlns:xlink="http://www.w3.org/1999/xlink" xmlns:svgjs="http://svgjs.dev/svgjs" width="1000" height="623" viewBox="0 0 1000 623"><g transform="matrix(1,0,0,1,-0.6060606060606233,0.2522267206477409)"><svg viewBox="0 0 396 247" data-background-color="#ffffff" preserveAspectRatio="xMidYMid meet" height="623" width="1000" xmlns="http://www.w3.org/2000/svg" xmlns:xlink="http://www.w3.org/1999/xlink"><defs></defs><g id="tight-bounds" transform="matrix(1,0,0,1,0.2400000000000091,-0.09999999999999432)"><svg viewBox="0 0 395.52 247.2" height="247.2" width="395.52"><g><svg></svg></g><g><svg viewBox="0 0 395.52 247.2" height="247.2" width="395.52"><g transform="matrix(8.948905857022629, 0, 0, 8.948905857022629, 101.08762017863643, 0.9999999999999858)"><svg xmlns="http://www.w3.org/2000/svg" xmlns:xlink="http://www.w3.org/1999/xlink" version="1.1" x="0" y="0" viewBox="34.20000076293945 31.299999237060547 21.60540771484375 27.39999771118164" enable-background="new 0 0 90 90" xml:space="preserve" height="27.39999771118164" width="21.60540771484375" class="icon-none" data-fill-palette-color="accent" id="none"><path d="M53 31.3H37c-1.6 0-2.8 1.3-2.8 2.8v21.8c0 1.6 1.3 2.8 2.8 2.8H53c1.6 0 2.8-1.3 2.8-2.8V34.1C55.9 32.6 54.6 31.3 53 31.3zM49.6 51.7h-9.3c-0.6 0-1.1-0.5-1.1-1.1 0-0.6 0.5-1.1 1.1-1.1h9.3c0.6 0 1.1 0.5 1.1 1.1C50.7 51.2 50.2 51.7 49.6 51.7zM49.6 46.1h-9.3c-0.6 0-1.1-0.5-1.1-1.1 0-0.6 0.5-1.1 1.1-1.1h9.3c0.6 0 1.1 0.5 1.1 1.1C50.7 45.6 50.2 46.1 49.6 46.1zM49.6 40.4h-9.3c-0.6 0-1.1-0.5-1.1-1.1 0-0.6 0.5-1.1 1.1-1.1h9.3c0.6 0 1.1 0.5 1.1 1.1C50.7 39.9 50.2 40.4 49.6 40.4z" fill="#f64d4a" data-fill-palette-color="accent"></path></svg></g><rect width="348.05760000000004" height="79.25209558577228" fill="#ffffff" y="83.97395220711385" x="23.731199999999973" data-fill-palette-color="quaternary"></rect><g transform="matrix(1,0,0,1,39.55199999999999,96.68291005759858)"><svg viewBox="0 0 316.416 53.83417988480284" height="53.83417988480284" width="316.416"><g><svg viewBox="0 0 316.416 53.83417988480284" height="53.83417988480284" width="316.416"><g><svg viewBox="0 0 316.416 53.83417988480284" height="53.83417988480284" width="316.416"><g><svg viewBox="0 0 316.416 53.83417988480284" height="53.83417988480284" width="316.416"><g><svg viewBox="0 0 316.416 53.83417988480284" height="53.83417988480284" width="316.416"><g><svg viewBox="0 0 316.416 53.83417988480284" height="53.83417988480284" width="316.416"><g transform="matrix(1,0,0,1,0,0)"><svg width="316.416" viewBox="2.8499999046325684 -38 225.6699981689453 38.400001525878906" height="53.83417988480284" data-palette-color="#f64d4a"><path d="M12.7 0L11.15 0Q7.1 0 4.98-1.8 2.85-3.6 2.85-7.55L2.85-7.55 2.85-33.3Q2.85-33.95 3.5-34.35 4.15-34.75 4.9-34.75L4.9-34.75Q5.7-34.75 6.35-34.35 7-33.95 7-33.3L7-33.3 7-23.7 13.3-23.7Q13.9-23.7 14.23-23.2 14.55-22.7 14.55-22.05L14.55-22.05Q14.55-21.4 14.23-20.93 13.9-20.45 13.3-20.45L13.3-20.45 7-20.45 7-7.55Q7-5.4 7.93-4.53 8.85-3.65 11.15-3.65L11.15-3.65 12.7-3.65Q13.6-3.65 14.05-3.1 14.5-2.55 14.5-1.85L14.5-1.85Q14.5-1.15 14.05-0.58 13.6 0 12.7 0L12.7 0ZM23.6 0.4L23.6 0.4Q20.8 0.4 18.82-1.23 16.85-2.85 16.85-6.25L16.85-6.25Q16.85-9 18.35-10.53 19.85-12.05 22.47-12.63 25.1-13.2 28.55-13.2L28.55-13.2 30.95-13.2 30.95-14.25Q30.95-15.75 30.4-17.18 29.85-18.6 28.67-19.53 27.5-20.45 25.45-20.45L25.45-20.45Q23.7-20.45 22.67-20.1 21.65-19.75 21.05-19.38 20.45-19 20-19L20-19Q19.25-19 18.85-19.73 18.45-20.45 18.45-21.1L18.45-21.1Q18.45-21.9 19.55-22.55 20.65-23.2 22.3-23.6 23.95-24 25.55-24L25.55-24Q29.05-24 31.15-22.6 33.25-21.2 34.17-19 35.1-16.8 35.1-14.3L35.1-14.3 35.1-1.5Q35.1-0.9 34.52-0.45 33.95 0 33.05 0L33.05 0Q32.25 0 31.7-0.45 31.15-0.9 31.15-1.5L31.15-1.5 31.15-3.5Q29.85-2 28-0.8 26.15 0.4 23.6 0.4ZM24.9-2.95L24.9-2.95Q26.35-2.95 27.72-3.75 29.1-4.55 30.02-5.75 30.95-6.95 30.95-8.05L30.95-8.05 30.95-10.65 29.2-10.65Q27.1-10.65 25.22-10.4 23.35-10.15 22.2-9.33 21.05-8.5 21.05-6.7L21.05-6.7Q21.05-4.75 22.15-3.85 23.25-2.95 24.9-2.95ZM47.55 0.4L47.55 0.4Q45.15 0.4 43.3-0.23 41.45-0.85 40.4-1.7 39.34-2.55 39.34-3.4L39.34-3.4Q39.34-3.8 39.55-4.23 39.75-4.65 40.07-4.98 40.4-5.3 40.8-5.3L40.8-5.3Q41.4-5.3 42.09-4.73 42.8-4.15 44-3.55 45.2-2.95 47.45-2.95L47.45-2.95Q50.09-2.95 51.15-3.93 52.2-4.9 52.2-6.1L52.2-6.1Q52.2-7.65 51.3-8.47 50.4-9.3 49-9.78 47.59-10.25 46.05-10.7 44.5-11.15 43.09-11.83 41.7-12.5 40.82-13.73 39.95-14.95 39.95-17L39.95-17Q39.95-18.65 40.75-20.25 41.55-21.85 43.34-22.93 45.15-24 48.15-24L48.15-24Q49.9-24 51.52-23.63 53.15-23.25 54.17-22.63 55.2-22 55.2-21.3L55.2-21.3Q55.2-21 55-20.5 54.8-20 54.45-19.6 54.09-19.2 53.55-19.2L53.55-19.2Q53.15-19.2 52.42-19.58 51.7-19.95 50.67-20.3 49.65-20.65 48.2-20.65L48.2-20.65Q46.55-20.65 45.55-20.08 44.55-19.5 44.09-18.73 43.65-17.95 43.65-17.15L43.65-17.15Q43.65-15.9 44.52-15.2 45.4-14.5 46.82-14.08 48.25-13.65 49.8-13.23 51.34-12.8 52.75-12.03 54.15-11.25 55.05-9.9 55.95-8.55 55.95-6.3L55.95-6.3Q55.95-3.25 53.75-1.43 51.55 0.4 47.55 0.4ZM62.54 0L62.54 0Q61.69 0 61.12-0.48 60.54-0.95 60.54-1.5L60.54-1.5 60.54-36.55Q60.54-37.2 61.12-37.6 61.69-38 62.54-38L62.54-38Q63.44-38 64.07-37.6 64.69-37.2 64.69-36.55L64.69-36.55 64.69-13.15 76.09-23.45Q76.54-23.8 76.99-23.8L76.99-23.8Q77.49-23.8 77.97-23.53 78.44-23.25 78.77-22.8 79.09-22.35 79.09-21.85L79.09-21.85Q79.09-21.6 78.99-21.33 78.89-21.05 78.64-20.85L78.64-20.85 71.69-14.7 79.99-2.65Q80.24-2.3 80.24-1.9L80.24-1.9Q80.24-1.4 79.89-0.9 79.54-0.4 79.02-0.1 78.49 0.2 77.94 0.2L77.94 0.2Q77.24 0.2 76.79-0.45L76.79-0.45 68.84-12.1 64.69-8.4 64.69-1.5Q64.69-0.95 64.07-0.48 63.44 0 62.54 0ZM103.54 0L101.99 0Q97.94 0 95.81-1.8 93.69-3.6 93.69-7.55L93.69-7.55 93.69-33.3Q93.69-33.95 94.34-34.35 94.99-34.75 95.74-34.75L95.74-34.75Q96.54-34.75 97.19-34.35 97.84-33.95 97.84-33.3L97.84-33.3 97.84-23.7 104.14-23.7Q104.74-23.7 105.06-23.2 105.39-22.7 105.39-22.05L105.39-22.05Q105.39-21.4 105.06-20.93 104.74-20.45 104.14-20.45L104.14-20.45 97.84-20.45 97.84-7.55Q97.84-5.4 98.76-4.53 99.69-3.65 101.99-3.65L101.99-3.65 103.54-3.65Q104.44-3.65 104.89-3.1 105.34-2.55 105.34-1.85L105.34-1.85Q105.34-1.15 104.89-0.58 104.44 0 103.54 0L103.54 0ZM111.24 0L111.24 0Q110.39 0 109.81-0.48 109.24-0.95 109.24-1.5L109.24-1.5 109.24-22.25Q109.24-22.9 109.81-23.3 110.39-23.7 111.24-23.7L111.24-23.7Q112.09-23.7 112.64-23.3 113.19-22.9 113.19-22.25L113.19-22.25 113.19-19.9Q113.74-20.95 114.69-21.88 115.64-22.8 116.91-23.4 118.19-24 119.74-24L119.74-24 121.44-24Q122.09-24 122.56-23.45 123.04-22.9 123.04-22.1L123.04-22.1Q123.04-21.35 122.56-20.8 122.09-20.25 121.44-20.25L121.44-20.25 119.74-20.25Q118.14-20.25 116.69-19.35 115.24-18.45 114.31-16.82 113.39-15.2 113.39-12.9L113.39-12.9 113.39-1.5Q113.39-0.95 112.76-0.48 112.14 0 111.24 0ZM130.68 0.4L130.68 0.4Q127.88 0.4 125.91-1.23 123.93-2.85 123.93-6.25L123.93-6.25Q123.93-9 125.43-10.53 126.93-12.05 129.56-12.63 132.18-13.2 135.63-13.2L135.63-13.2 138.03-13.2 138.03-14.25Q138.03-15.75 137.48-17.18 136.93-18.6 135.76-19.53 134.58-20.45 132.53-20.45L132.53-20.45Q130.78-20.45 129.76-20.1 128.73-19.75 128.13-19.38 127.53-19 127.08-19L127.08-19Q126.33-19 125.93-19.73 125.53-20.45 125.53-21.1L125.53-21.1Q125.53-21.9 126.63-22.55 127.73-23.2 129.38-23.6 131.03-24 132.63-24L132.63-24Q136.13-24 138.23-22.6 140.33-21.2 141.26-19 142.18-16.8 142.18-14.3L142.18-14.3 142.18-1.5Q142.18-0.9 141.61-0.45 141.03 0 140.13 0L140.13 0Q139.33 0 138.78-0.45 138.23-0.9 138.23-1.5L138.23-1.5 138.23-3.5Q136.93-2 135.08-0.8 133.23 0.4 130.68 0.4ZM131.98-2.95L131.98-2.95Q133.43-2.95 134.81-3.75 136.18-4.55 137.11-5.75 138.03-6.95 138.03-8.05L138.03-8.05 138.03-10.65 136.28-10.65Q134.18-10.65 132.31-10.4 130.43-10.15 129.28-9.33 128.13-8.5 128.13-6.7L128.13-6.7Q128.13-4.75 129.23-3.85 130.33-2.95 131.98-2.95ZM157.03 0.4L157.03 0.4Q153.58 0.4 151.36-0.9 149.13-2.2 148.06-4.38 146.98-6.55 146.98-9.3L146.98-9.3 146.98-14.3Q146.98-17 148.06-19.2 149.13-21.4 151.36-22.7 153.58-24 156.98-24L156.98-24Q159.18-24 160.83-23.45 162.48-22.9 163.38-22.1 164.28-21.3 164.28-20.55L164.28-20.55Q164.28-20.15 164.06-19.68 163.83-19.2 163.46-18.85 163.08-18.5 162.58-18.5L162.58-18.5Q162.08-18.5 161.51-18.95 160.93-19.4 159.96-19.83 158.98-20.25 157.23-20.25L157.23-20.25Q154.18-20.25 152.66-18.65 151.13-17.05 151.13-14.3L151.13-14.3 151.13-9.3Q151.13-6.55 152.66-4.95 154.18-3.35 157.28-3.35L157.28-3.35Q159.08-3.35 160.08-3.83 161.08-4.3 161.66-4.73 162.23-5.15 162.78-5.15L162.78-5.15Q163.33-5.15 163.73-4.83 164.13-4.5 164.36-4.05 164.58-3.6 164.58-3.15L164.58-3.15Q164.58-2.4 163.63-1.58 162.68-0.75 160.98-0.18 159.28 0.4 157.03 0.4ZM170.78 0L170.78 0Q169.93 0 169.35-0.48 168.78-0.95 168.78-1.5L168.78-1.5 168.78-36.55Q168.78-37.2 169.35-37.6 169.93-38 170.78-38L170.78-38Q171.68-38 172.3-37.6 172.93-37.2 172.93-36.55L172.93-36.55 172.93-13.15 184.33-23.45Q184.78-23.8 185.23-23.8L185.23-23.8Q185.73-23.8 186.2-23.53 186.68-23.25 187-22.8 187.33-22.35 187.33-21.85L187.33-21.85Q187.33-21.6 187.23-21.33 187.13-21.05 186.88-20.85L186.88-20.85 179.93-14.7 188.23-2.65Q188.48-2.3 188.48-1.9L188.48-1.9Q188.48-1.4 188.13-0.9 187.78-0.4 187.25-0.1 186.73 0.2 186.18 0.2L186.18 0.2Q185.48 0.2 185.03-0.45L185.03-0.45 177.08-12.1 172.93-8.4 172.93-1.5Q172.93-0.95 172.3-0.48 171.68 0 170.78 0ZM201.73 0.4L201.73 0.4Q198.48 0.4 195.98-0.83 193.48-2.05 192.03-4.23 190.58-6.4 190.58-9.3L190.58-9.3 190.58-14.55Q190.58-17.1 191.95-19.25 193.33-21.4 195.58-22.7 197.83-24 200.53-24L200.53-24Q203.13-24 205.3-22.8 207.48-21.6 208.8-19.55 210.13-17.5 210.13-14.8L210.13-14.8Q210.13-12.8 209.48-11.93 208.83-11.05 207.83-10.85 206.83-10.65 205.73-10.65L205.73-10.65 194.73-10.65 194.73-9.15Q194.73-6.35 196.73-4.73 198.73-3.1 201.88-3.1L201.88-3.1Q203.73-3.1 204.83-3.6 205.93-4.1 206.63-4.58 207.33-5.05 207.88-5.05L207.88-5.05Q208.43-5.05 208.8-4.73 209.18-4.4 209.38-3.95 209.58-3.5 209.58-3.15L209.58-3.15Q209.58-2.5 208.63-1.68 207.68-0.85 205.9-0.23 204.13 0.4 201.73 0.4ZM194.73-15.25L194.73-13.45 203.98-13.45Q205.33-13.45 205.75-13.78 206.18-14.1 206.18-15.05L206.18-15.05Q206.18-16.55 205.45-17.82 204.73-19.1 203.43-19.9 202.13-20.7 200.48-20.7L200.48-20.7Q198.93-20.7 197.63-19.98 196.33-19.25 195.53-18 194.73-16.75 194.73-15.25L194.73-15.25ZM216.72 0L216.72 0Q215.87 0 215.3-0.48 214.72-0.95 214.72-1.5L214.72-1.5 214.72-22.25Q214.72-22.9 215.3-23.3 215.87-23.7 216.72-23.7L216.72-23.7Q217.57-23.7 218.12-23.3 218.67-22.9 218.67-22.25L218.67-22.25 218.67-19.9Q219.22-20.95 220.17-21.88 221.12-22.8 222.4-23.4 223.67-24 225.22-24L225.22-24 226.92-24Q227.57-24 228.05-23.45 228.52-22.9 228.52-22.1L228.52-22.1Q228.52-21.35 228.05-20.8 227.57-20.25 226.92-20.25L226.92-20.25 225.22-20.25Q223.62-20.25 222.17-19.35 220.72-18.45 219.8-16.82 218.87-15.2 218.87-12.9L218.87-12.9 218.87-1.5Q218.87-0.95 218.25-0.48 217.62 0 216.72 0Z" opacity="1" transform="matrix(1,0,0,1,0,0)" fill="#f64d4a" class="undefined-text-0" data-fill-palette-color="primary" id="text-0"></path></svg></g></svg></g></svg></g></svg></g><g></g></svg></g></svg></g></svg></g></svg></g></svg><rect width="395.52" height="247.2" fill="none" stroke="none" visibility="hidden"></rect></g></svg></g></svg>